<svg width="58" height="58" viewBox="0 0 58 58" fill="none" xmlns="http://www.w3.org/2000/svg">
<g filter="url(#filter0_d_2_120)">
<circle cx="29" cy="25" r="25" fill="black"/>
<path d="M31.8059 30.6943L31.7597 29.9458L31.8059 30.6943ZM26.3327 20.8244L26.2762 21.5723C26.4795 21.5877 26.6803 21.5196 26.8323 21.3838C26.9844 21.2479 27.0746 21.056 27.0822 20.8523L26.3327 20.8244ZM35.5254 27.3716L36.264 27.5015L35.5254 27.3716ZM31.7597 29.9458C30.1685 30.0438 28.5344 30.2341 26.9356 30.0486C25.3752 29.8676 23.933 29.3326 22.7594 28.0189L21.6408 29.0182C23.1263 30.6811 24.9523 31.3286 26.7627 31.5386C28.5347 31.7442 30.3739 31.534 31.852 31.4429L31.7597 29.9458ZM22.7594 28.0189C21.6168 26.7398 21.3858 25.0269 21.9646 23.7058C22.5225 22.4323 23.8968 21.3926 26.2762 21.5723L26.3892 20.0766C23.4577 19.8552 21.4361 21.1741 20.5907 23.1038C19.7661 24.9859 20.1242 27.3206 21.6408 29.0182L22.7594 28.0189ZM31.852 31.4429C32.3848 31.4101 32.9662 31.3726 33.4961 31.265C34.0257 31.1575 34.5862 30.9652 35.0342 30.565L34.0349 29.4464C33.8709 29.5929 33.6086 29.7116 33.1976 29.795C32.7869 29.8784 32.3101 29.9118 31.7597 29.9458L31.852 31.4429ZM36.264 27.5015C36.5206 26.043 36.936 24.239 36.9307 22.4552C36.9254 20.6326 36.4871 18.7454 35.0016 17.0825L33.8829 18.0818C35.0566 19.3956 35.4261 20.8887 35.4307 22.4596C35.4355 24.0691 35.0629 25.6715 34.7867 27.2417L36.264 27.5015ZM35.0016 17.0825C33.4851 15.3849 31.2054 14.7668 29.2426 15.3748C27.2301 15.9981 25.6924 17.8588 25.5832 20.7966L27.0822 20.8523C27.1708 18.4678 28.3584 17.219 29.6864 16.8076C31.0641 16.3809 32.7403 16.8028 33.8829 18.0818L35.0016 17.0825ZM34.7867 27.2417C34.6912 27.7847 34.6044 28.2548 34.4754 28.6535C34.3464 29.0525 34.199 29.2998 34.0349 29.4464L35.0342 30.565C35.4823 30.1647 35.7363 29.6293 35.9026 29.1152C36.069 28.6007 36.1716 28.0272 36.264 27.5015L34.7867 27.2417Z" fill="white"/>
</g>
<defs>
<filter id="filter0_d_2_120" x="0" y="0" width="58" height="58" filterUnits="userSpaceOnUse" color-interpolation-filters="sRGB">
<feFlood flood-opacity="0" result="BackgroundImageFix"/>
<feColorMatrix in="SourceAlpha" type="matrix" values="0 0 0 0 0 0 0 0 0 0 0 0 0 0 0 0 0 0 127 0" result="hardAlpha"/>
<feOffset dy="4"/>
<feGaussianBlur stdDeviation="2"/>
<feComposite in2="hardAlpha" operator="out"/>
<feColorMatrix type="matrix" values="0 0 0 0 0 0 0 0 0 0 0 0 0 0 0 0 0 0 0.25 0"/>
<feBlend mode="normal" in2="BackgroundImageFix" result="effect1_dropShadow_2_120"/>
<feBlend mode="normal" in="SourceGraphic" in2="effect1_dropShadow_2_120" result="shape"/>
</filter>
</defs>
</svg>
